<svg viewBox="0 0 800 400" preserveAspectRatio="xMidYMid meet" xmlns="http://www.w3.org/2000/svg"><defs><radialGradient id="fade-mask" cx="50%" cy="50%" r="100%"><stop offset="0%" stop-color="white" stop-opacity="0"/><stop offset="75%" stop-color="white" stop-opacity="0.75"/><stop offset="100%" stop-color="white" stop-opacity="1"/></radialGradient><mask id="radial-mask"><rect width="800" height="400" fill="url(#fade-mask)"/></mask></defs><rect width="800" height="400" fill="#24135f"/><g fill="#440099" mask="url(#radial-mask)"><circle cx="0.00" cy="0.00" r="1.63"/><circle cx="0.00" cy="16.00" r="1.75"/><circle cx="0.00" cy="32.00" r="1.87"/><circle cx="0.00" cy="48.00" r="2.00"/><circle cx="0.00" cy="64.00" r="2.13"/><circle cx="0.00" cy="80.00" r="2.27"/><circle cx="0.00" cy="96.00" r="2.41"/><circle cx="0.00" cy="112.00" r="2.55"/><circle cx="0.00" cy="128.00" r="2.70"/><circle cx="0.00" cy="144.00" r="2.86"/><circle cx="0.00" cy="160.00" r="3.02"/><circle cx="0.00" cy="176.00" r="3.18"/><circle cx="0.00" cy="192.00" r="3.35"/><circle cx="0.00" cy="208.00" r="3.53"/><circle cx="0.00" cy="224.00" r="3.71"/><circle cx="0.00" cy="240.00" r="3.89"/><circle cx="0.00" cy="256.00" r="4.08"/><circle cx="0.00" cy="272.00" r="4.27"/><circle cx="0.00" cy="288.00" r="4.47"/><circle cx="0.00" cy="304.00" r="4.67"/><circle cx="0.00" cy="320.00" r="4.88"/><circle cx="0.00" cy="336.00" r="5.10"/><circle cx="0.00" cy="352.00" r="5.31"/><circle cx="0.00" cy="368.00" r="5.54"/><circle cx="0.00" cy="384.00" r="5.77"/><circle cx="0.00" cy="400.00" r="6.00"/><circle cx="16.00" cy="0.00" r="1.63"/><circle cx="16.00" cy="16.00" r="1.74"/><circle cx="16.00" cy="32.00" r="1.87"/><circle cx="16.00" cy="48.00" r="1.99"/><circle cx="16.00" cy="64.00" r="2.13"/><circle cx="16.00" cy="80.00" r="2.26"/><circle cx="16.00" cy="96.00" r="2.40"/><circle cx="16.00" cy="112.00" r="2.55"/><circle cx="16.00" cy="128.00" r="2.70"/><circle cx="16.00" cy="144.00" r="2.85"/><circle cx="16.00" cy="160.00" r="3.01"/><circle cx="16.00" cy="176.00" r="3.18"/><circle cx="16.00" cy="192.00" r="3.35"/><circle cx="16.00" cy="208.00" r="3.52"/><circle cx="16.00" cy="224.00" r="3.70"/><circle cx="16.00" cy="240.00" r="3.88"/><circle cx="16.00" cy="256.00" r="4.07"/><circle cx="16.00" cy="272.00" r="4.26"/><circle cx="16.00" cy="288.00" r="4.46"/><circle cx="16.00" cy="304.00" r="4.66"/><circle cx="16.00" cy="320.00" r="4.86"/><circle cx="16.00" cy="336.00" r="5.07"/><circle cx="16.00" cy="352.00" r="5.28"/><circle cx="16.00" cy="368.00" r="5.48"/><circle cx="16.00" cy="384.00" r="5.67"/><circle cx="16.00" cy="400.00" r="5.77"/><circle cx="32.00" cy="0.00" r="1.62"/><circle cx="32.00" cy="16.00" r="1.74"/><circle cx="32.00" cy="32.00" r="1.86"/><circle cx="32.00" cy="48.00" r="1.98"/><circle cx="32.00" cy="64.00" r="2.12"/><circle cx="32.00" cy="80.00" r="2.25"/><circle cx="32.00" cy="96.00" r="2.39"/><circle cx="32.00" cy="112.00" r="2.54"/><circle cx="32.00" cy="128.00" r="2.68"/><circle cx="32.00" cy="144.00" r="2.84"/><circle cx="32.00" cy="160.00" r="3.00"/><circle cx="32.00" cy="176.00" r="3.16"/><circle cx="32.00" cy="192.00" r="3.33"/><circle cx="32.00" cy="208.00" r="3.50"/><circle cx="32.00" cy="224.00" r="3.67"/><circle cx="32.00" cy="240.00" r="3.85"/><circle cx="32.00" cy="256.00" r="4.04"/><circle cx="32.00" cy="272.00" r="4.22"/><circle cx="32.00" cy="288.00" r="4.41"/><circle cx="32.00" cy="304.00" r="4.61"/><circle cx="32.00" cy="320.00" r="4.80"/><circle cx="32.00" cy="336.00" r="4.99"/><circle cx="32.00" cy="352.00" r="5.18"/><circle cx="32.00" cy="368.00" r="5.35"/><circle cx="32.00" cy="384.00" r="5.48"/><circle cx="32.00" cy="400.00" r="5.54"/><circle cx="48.00" cy="0.00" r="1.61"/><circle cx="48.00" cy="16.00" r="1.72"/><circle cx="48.00" cy="32.00" r="1.85"/><circle cx="48.00" cy="48.00" r="1.97"/><circle cx="48.00" cy="64.00" r="2.10"/><circle cx="48.00" cy="80.00" r="2.23"/><circle cx="48.00" cy="96.00" r="2.37"/><circle cx="48.00" cy="112.00" r="2.52"/><circle cx="48.00" cy="128.00" r="2.66"/><circle cx="48.00" cy="144.00" r="2.81"/><circle cx="48.00" cy="160.00" r="2.97"/><circle cx="48.00" cy="176.00" r="3.13"/><circle cx="48.00" cy="192.00" r="3.29"/><circle cx="48.00" cy="208.00" r="3.46"/><circle cx="48.00" cy="224.00" r="3.63"/><circle cx="48.00" cy="240.00" r="3.81"/><circle cx="48.00" cy="256.00" r="3.99"/><circle cx="48.00" cy="272.00" r="4.17"/><circle cx="48.00" cy="288.00" r="4.35"/><circle cx="48.00" cy="304.00" r="4.53"/><circle cx="48.00" cy="320.00" r="4.71"/><circle cx="48.00" cy="336.00" r="4.88"/><circle cx="48.00" cy="352.00" r="5.04"/><circle cx="48.00" cy="368.00" r="5.18"/><circle cx="48.00" cy="384.00" r="5.28"/><circle cx="48.00" cy="400.00" r="5.31"/><circle cx="64.00" cy="0.00" r="1.59"/><circle cx="64.00" cy="16.00" r="1.71"/><circle cx="64.00" cy="32.00" r="1.83"/><circle cx="64.00" cy="48.00" r="1.95"/><circle cx="64.00" cy="64.00" r="2.08"/><circle cx="64.00" cy="80.00" r="2.21"/><circle cx="64.00" cy="96.00" r="2.35"/><circle cx="64.00" cy="112.00" r="2.49"/><circle cx="64.00" cy="128.00" r="2.63"/><circle cx="64.00" cy="144.00" r="2.78"/><circle cx="64.00" cy="160.00" r="2.93"/><circle cx="64.00" cy="176.00" r="3.09"/><circle cx="64.00" cy="192.00" r="3.25"/><circle cx="64.00" cy="208.00" r="3.41"/><circle cx="64.00" cy="224.00" r="3.58"/><circle cx="64.00" cy="240.00" r="3.75"/><circle cx="64.00" cy="256.00" r="3.92"/><circle cx="64.00" cy="272.00" r="4.09"/><circle cx="64.00" cy="288.00" r="4.26"/><circle cx="64.00" cy="304.00" r="4.43"/><circle cx="64.00" cy="320.00" r="4.59"/><circle cx="64.00" cy="336.00" r="4.74"/><circle cx="64.00" cy="352.00" r="4.88"/><circle cx="64.00" cy="368.00" r="4.99"/><circle cx="64.00" cy="384.00" r="5.07"/><circle cx="64.00" cy="400.00" r="5.10"/><circle cx="80.00" cy="0.00" r="1.57"/><circle cx="80.00" cy="16.00" r="1.69"/><circle cx="80.00" cy="32.00" r="1.80"/><circle cx="80.00" cy="48.00" r="1.92"/><circle cx="80.00" cy="64.00" r="2.05"/><circle cx="80.00" cy="80.00" r="2.18"/><circle cx="80.00" cy="96.00" r="2.31"/><circle cx="80.00" cy="112.00" r="2.45"/><circle cx="80.00" cy="128.00" r="2.59"/><circle cx="80.00" cy="144.00" r="2.74"/><circle cx="80.00" cy="160.00" r="2.89"/><circle cx="80.00" cy="176.00" r="3.04"/><circle cx="80.00" cy="192.00" r="3.19"/><circle cx="80.00" cy="208.00" r="3.35"/><circle cx="80.00" cy="224.00" r="3.51"/><circle cx="80.00" cy="240.00" r="3.67"/><circle cx="80.00" cy="256.00" r="3.83"/><circle cx="80.00" cy="272.00" r="4.00"/><circle cx="80.00" cy="288.00" r="4.15"/><circle cx="80.00" cy="304.00" r="4.31"/><circle cx="80.00" cy="320.00" r="4.46"/><circle cx="80.00" cy="336.00" r="4.59"/><circle cx="80.00" cy="352.00" r="4.71"/><circle cx="80.00" cy="368.00" r="4.80"/><circle cx="80.00" cy="384.00" r="4.86"/><circle cx="80.00" cy="400.00" r="4.88"/><circle cx="96.00" cy="0.00" r="1.55"/><circle cx="96.00" cy="16.00" r="1.66"/><circle cx="96.00" cy="32.00" r="1.77"/><circle cx="96.00" cy="48.00" r="1.89"/><circle cx="96.00" cy="64.00" r="2.02"/><circle cx="96.00" cy="80.00" r="2.14"/><circle cx="96.00" cy="96.00" r="2.28"/><circle cx="96.00" cy="112.00" r="2.41"/><circle cx="96.00" cy="128.00" r="2.55"/><circle cx="96.00" cy="144.00" r="2.69"/><circle cx="96.00" cy="160.00" r="2.83"/><circle cx="96.00" cy="176.00" r="2.98"/><circle cx="96.00" cy="192.00" r="3.13"/><circle cx="96.00" cy="208.00" r="3.28"/><circle cx="96.00" cy="224.00" r="3.43"/><circle cx="96.00" cy="240.00" r="3.59"/><circle cx="96.00" cy="256.00" r="3.74"/><circle cx="96.00" cy="272.00" r="3.89"/><circle cx="96.00" cy="288.00" r="4.04"/><circle cx="96.00" cy="304.00" r="4.18"/><circle cx="96.00" cy="320.00" r="4.31"/><circle cx="96.00" cy="336.00" r="4.43"/><circle cx="96.00" cy="352.00" r="4.53"/><circle cx="96.00" cy="368.00" r="4.61"/><circle cx="96.00" cy="384.00" r="4.66"/><circle cx="96.00" cy="400.00" r="4.67"/><circle cx="112.00" cy="0.00" r="1.52"/><circle cx="112.00" cy="16.00" r="1.63"/><circle cx="112.00" cy="32.00" r="1.74"/><circle cx="112.00" cy="48.00" r="1.86"/><circle cx="112.00" cy="64.00" r="1.98"/><circle cx="112.00" cy="80.00" r="2.10"/><circle cx="112.00" cy="96.00" r="2.23"/><circle cx="112.00" cy="112.00" r="2.36"/><circle cx="112.00" cy="128.00" r="2.50"/><circle cx="112.00" cy="144.00" r="2.63"/><circle cx="112.00" cy="160.00" r="2.77"/><circle cx="112.00" cy="176.00" r="2.91"/><circle cx="112.00" cy="192.00" r="3.06"/><circle cx="112.00" cy="208.00" r="3.20"/><circle cx="112.00" cy="224.00" r="3.35"/><circle cx="112.00" cy="240.00" r="3.49"/><circle cx="112.00" cy="256.00" r="3.63"/><circle cx="112.00" cy="272.00" r="3.77"/><circle cx="112.00" cy="288.00" r="3.91"/><circle cx="112.00" cy="304.00" r="4.04"/><circle cx="112.00" cy="320.00" r="4.15"/><circle cx="112.00" cy="336.00" r="4.26"/><circle cx="112.00" cy="352.00" r="4.35"/><circle cx="112.00" cy="368.00" r="4.41"/><circle cx="112.00" cy="384.00" r="4.46"/><circle cx="112.00" cy="400.00" r="4.47"/><circle cx="128.00" cy="0.00" r="1.49"/><circle cx="128.00" cy="16.00" r="1.59"/><circle cx="128.00" cy="32.00" r="1.70"/><circle cx="128.00" cy="48.00" r="1.82"/><circle cx="128.00" cy="64.00" r="1.94"/><circle cx="128.00" cy="80.00" r="2.06"/><circle cx="128.00" cy="96.00" r="2.18"/><circle cx="128.00" cy="112.00" r="2.31"/><circle cx="128.00" cy="128.00" r="2.44"/><circle cx="128.00" cy="144.00" r="2.57"/><circle cx="128.00" cy="160.00" r="2.70"/><circle cx="128.00" cy="176.00" r="2.84"/><circle cx="128.00" cy="192.00" r="2.97"/><circle cx="128.00" cy="208.00" r="3.11"/><circle cx="128.00" cy="224.00" r="3.25"/><circle cx="128.00" cy="240.00" r="3.39"/><circle cx="128.00" cy="256.00" r="3.52"/><circle cx="128.00" cy="272.00" r="3.65"/><circle cx="128.00" cy="288.00" r="3.77"/><circle cx="128.00" cy="304.00" r="3.89"/><circle cx="128.00" cy="320.00" r="4.00"/><circle cx="128.00" cy="336.00" r="4.09"/><circle cx="128.00" cy="352.00" r="4.17"/><circle cx="128.00" cy="368.00" r="4.22"/><circle cx="128.00" cy="384.00" r="4.26"/><circle cx="128.00" cy="400.00" r="4.27"/><circle cx="144.00" cy="0.00" r="1.45"/><circle cx="144.00" cy="16.00" r="1.56"/><circle cx="144.00" cy="32.00" r="1.66"/><circle cx="144.00" cy="48.00" r="1.77"/><circle cx="144.00" cy="64.00" r="1.89"/><circle cx="144.00" cy="80.00" r="2.01"/><circle cx="144.00" cy="96.00" r="2.13"/><circle cx="144.00" cy="112.00" r="2.25"/><circle cx="144.00" cy="128.00" r="2.37"/><circle cx="144.00" cy="144.00" r="2.50"/><circle cx="144.00" cy="160.00" r="2.63"/><circle cx="144.00" cy="176.00" r="2.76"/><circle cx="144.00" cy="192.00" r="2.89"/><circle cx="144.00" cy="208.00" r="3.02"/><circle cx="144.00" cy="224.00" r="3.15"/><circle cx="144.00" cy="240.00" r="3.27"/><circle cx="144.00" cy="256.00" r="3.40"/><circle cx="144.00" cy="272.00" r="3.52"/><circle cx="144.00" cy="288.00" r="3.63"/><circle cx="144.00" cy="304.00" r="3.74"/><circle cx="144.00" cy="320.00" r="3.83"/><circle cx="144.00" cy="336.00" r="3.92"/><circle cx="144.00" cy="352.00" r="3.99"/><circle cx="144.00" cy="368.00" r="4.04"/><circle cx="144.00" cy="384.00" r="4.07"/><circle cx="144.00" cy="400.00" r="4.08"/><circle cx="160.00" cy="0.00" r="1.41"/><circle cx="160.00" cy="16.00" r="1.51"/><circle cx="160.00" cy="32.00" r="1.62"/><circle cx="160.00" cy="48.00" r="1.73"/><circle cx="160.00" cy="64.00" r="1.84"/><circle cx="160.00" cy="80.00" r="1.95"/><circle cx="160.00" cy="96.00" r="2.07"/><circle cx="160.00" cy="112.00" r="2.18"/><circle cx="160.00" cy="128.00" r="2.30"/><circle cx="160.00" cy="144.00" r="2.43"/><circle cx="160.00" cy="160.00" r="2.55"/><circle cx="160.00" cy="176.00" r="2.67"/><circle cx="160.00" cy="192.00" r="2.79"/><circle cx="160.00" cy="208.00" r="2.92"/><circle cx="160.00" cy="224.00" r="3.04"/><circle cx="160.00" cy="240.00" r="3.16"/><circle cx="160.00" cy="256.00" r="3.27"/><circle cx="160.00" cy="272.00" r="3.39"/><circle cx="160.00" cy="288.00" r="3.49"/><circle cx="160.00" cy="304.00" r="3.59"/><circle cx="160.00" cy="320.00" r="3.67"/><circle cx="160.00" cy="336.00" r="3.75"/><circle cx="160.00" cy="352.00" r="3.81"/><circle cx="160.00" cy="368.00" r="3.85"/><circle cx="160.00" cy="384.00" r="3.88"/><circle cx="160.00" cy="400.00" r="3.89"/><circle cx="176.00" cy="0.00" r="1.37"/><circle cx="176.00" cy="16.00" r="1.47"/><circle cx="176.00" cy="32.00" r="1.57"/><circle cx="176.00" cy="48.00" r="1.68"/><circle cx="176.00" cy="64.00" r="1.78"/><circle cx="176.00" cy="80.00" r="1.89"/><circle cx="176.00" cy="96.00" r="2.00"/><circle cx="176.00" cy="112.00" r="2.12"/><circle cx="176.00" cy="128.00" r="2.23"/><circle cx="176.00" cy="144.00" r="2.35"/><circle cx="176.00" cy="160.00" r="2.46"/><circle cx="176.00" cy="176.00" r="2.58"/><circle cx="176.00" cy="192.00" r="2.70"/><circle cx="176.00" cy="208.00" r="2.81"/><circle cx="176.00" cy="224.00" r="2.93"/><circle cx="176.00" cy="240.00" r="3.04"/><circle cx="176.00" cy="256.00" r="3.15"/><circle cx="176.00" cy="272.00" r="3.25"/><circle cx="176.00" cy="288.00" r="3.35"/><circle cx="176.00" cy="304.00" r="3.43"/><circle cx="176.00" cy="320.00" r="3.51"/><circle cx="176.00" cy="336.00" r="3.58"/><circle cx="176.00" cy="352.00" r="3.63"/><circle cx="176.00" cy="368.00" r="3.67"/><circle cx="176.00" cy="384.00" r="3.70"/><circle cx="176.00" cy="400.00" r="3.71"/><circle cx="192.00" cy="0.00" r="1.33"/><circle cx="192.00" cy="16.00" r="1.42"/><circle cx="192.00" cy="32.00" r="1.52"/><circle cx="192.00" cy="48.00" r="1.62"/><circle cx="192.00" cy="64.00" r="1.72"/><circle cx="192.00" cy="80.00" r="1.83"/><circle cx="192.00" cy="96.00" r="1.94"/><circle cx="192.00" cy="112.00" r="2.04"/><circle cx="192.00" cy="128.00" r="2.15"/><circle cx="192.00" cy="144.00" r="2.27"/><circle cx="192.00" cy="160.00" r="2.38"/><circle cx="192.00" cy="176.00" r="2.49"/><circle cx="192.00" cy="192.00" r="2.60"/><circle cx="192.00" cy="208.00" r="2.71"/><circle cx="192.00" cy="224.00" r="2.81"/><circle cx="192.00" cy="240.00" r="2.92"/><circle cx="192.00" cy="256.00" r="3.02"/><circle cx="192.00" cy="272.00" r="3.11"/><circle cx="192.00" cy="288.00" r="3.20"/><circle cx="192.00" cy="304.00" r="3.28"/><circle cx="192.00" cy="320.00" r="3.35"/><circle cx="192.00" cy="336.00" r="3.41"/><circle cx="192.00" cy="352.00" r="3.46"/><circle cx="192.00" cy="368.00" r="3.50"/><circle cx="192.00" cy="384.00" r="3.52"/><circle cx="192.00" cy="400.00" r="3.53"/><circle cx="208.00" cy="0.00" r="1.28"/><circle cx="208.00" cy="16.00" r="1.37"/><circle cx="208.00" cy="32.00" r="1.47"/><circle cx="208.00" cy="48.00" r="1.56"/><circle cx="208.00" cy="64.00" r="1.66"/><circle cx="208.00" cy="80.00" r="1.76"/><circle cx="208.00" cy="96.00" r="1.87"/><circle cx="208.00" cy="112.00" r="1.97"/><circle cx="208.00" cy="128.00" r="2.08"/><circle cx="208.00" cy="144.00" r="2.18"/><circle cx="208.00" cy="160.00" r="2.29"/><circle cx="208.00" cy="176.00" r="2.39"/><circle cx="208.00" cy="192.00" r="2.50"/><circle cx="208.00" cy="208.00" r="2.60"/><circle cx="208.00" cy="224.00" r="2.70"/><circle cx="208.00" cy="240.00" r="2.79"/><circle cx="208.00" cy="256.00" r="2.89"/><circle cx="208.00" cy="272.00" r="2.97"/><circle cx="208.00" cy="288.00" r="3.06"/><circle cx="208.00" cy="304.00" r="3.13"/><circle cx="208.00" cy="320.00" r="3.19"/><circle cx="208.00" cy="336.00" r="3.25"/><circle cx="208.00" cy="352.00" r="3.29"/><circle cx="208.00" cy="368.00" r="3.33"/><circle cx="208.00" cy="384.00" r="3.35"/><circle cx="208.00" cy="400.00" r="3.35"/><circle cx="224.00" cy="0.00" r="1.23"/><circle cx="224.00" cy="16.00" r="1.32"/><circle cx="224.00" cy="32.00" r="1.41"/><circle cx="224.00" cy="48.00" r="1.51"/><circle cx="224.00" cy="64.00" r="1.60"/><circle cx="224.00" cy="80.00" r="1.70"/><circle cx="224.00" cy="96.00" r="1.80"/><circle cx="224.00" cy="112.00" r="1.89"/><circle cx="224.00" cy="128.00" r="1.99"/><circle cx="224.00" cy="144.00" r="2.09"/><circle cx="224.00" cy="160.00" r="2.19"/><circle cx="224.00" cy="176.00" r="2.29"/><circle cx="224.00" cy="192.00" r="2.39"/><circle cx="224.00" cy="208.00" r="2.49"/><circle cx="224.00" cy="224.00" r="2.58"/><circle cx="224.00" cy="240.00" r="2.67"/><circle cx="224.00" cy="256.00" r="2.76"/><circle cx="224.00" cy="272.00" r="2.84"/><circle cx="224.00" cy="288.00" r="2.91"/><circle cx="224.00" cy="304.00" r="2.98"/><circle cx="224.00" cy="320.00" r="3.04"/><circle cx="224.00" cy="336.00" r="3.09"/><circle cx="224.00" cy="352.00" r="3.13"/><circle cx="224.00" cy="368.00" r="3.16"/><circle cx="224.00" cy="384.00" r="3.18"/><circle cx="224.00" cy="400.00" r="3.18"/><circle cx="240.00" cy="0.00" r="1.19"/><circle cx="240.00" cy="16.00" r="1.27"/><circle cx="240.00" cy="32.00" r="1.36"/><circle cx="240.00" cy="48.00" r="1.45"/><circle cx="240.00" cy="64.00" r="1.54"/><circle cx="240.00" cy="80.00" r="1.63"/><circle cx="240.00" cy="96.00" r="1.72"/><circle cx="240.00" cy="112.00" r="1.82"/><circle cx="240.00" cy="128.00" r="1.91"/><circle cx="240.00" cy="144.00" r="2.01"/><circle cx="240.00" cy="160.00" r="2.10"/><circle cx="240.00" cy="176.00" r="2.19"/><circle cx="240.00" cy="192.00" r="2.29"/><circle cx="240.00" cy="208.00" r="2.38"/><circle cx="240.00" cy="224.00" r="2.46"/><circle cx="240.00" cy="240.00" r="2.55"/><circle cx="240.00" cy="256.00" r="2.63"/><circle cx="240.00" cy="272.00" r="2.70"/><circle cx="240.00" cy="288.00" r="2.77"/><circle cx="240.00" cy="304.00" r="2.83"/><circle cx="240.00" cy="320.00" r="2.89"/><circle cx="240.00" cy="336.00" r="2.93"/><circle cx="240.00" cy="352.00" r="2.97"/><circle cx="240.00" cy="368.00" r="3.00"/><circle cx="240.00" cy="384.00" r="3.01"/><circle cx="240.00" cy="400.00" r="3.02"/><circle cx="256.00" cy="0.00" r="1.13"/><circle cx="256.00" cy="16.00" r="1.22"/><circle cx="256.00" cy="32.00" r="1.30"/><circle cx="256.00" cy="48.00" r="1.38"/><circle cx="256.00" cy="64.00" r="1.47"/><circle cx="256.00" cy="80.00" r="1.56"/><circle cx="256.00" cy="96.00" r="1.65"/><circle cx="256.00" cy="112.00" r="1.74"/><circle cx="256.00" cy="128.00" r="1.83"/><circle cx="256.00" cy="144.00" r="1.92"/><circle cx="256.00" cy="160.00" r="2.01"/><circle cx="256.00" cy="176.00" r="2.09"/><circle cx="256.00" cy="192.00" r="2.18"/><circle cx="256.00" cy="208.00" r="2.27"/><circle cx="256.00" cy="224.00" r="2.35"/><circle cx="256.00" cy="240.00" r="2.43"/><circle cx="256.00" cy="256.00" r="2.50"/><circle cx="256.00" cy="272.00" r="2.57"/><circle cx="256.00" cy="288.00" r="2.63"/><circle cx="256.00" cy="304.00" r="2.69"/><circle cx="256.00" cy="320.00" r="2.74"/><circle cx="256.00" cy="336.00" r="2.78"/><circle cx="256.00" cy="352.00" r="2.81"/><circle cx="256.00" cy="368.00" r="2.84"/><circle cx="256.00" cy="384.00" r="2.85"/><circle cx="256.00" cy="400.00" r="2.86"/><circle cx="272.00" cy="0.00" r="1.08"/><circle cx="272.00" cy="16.00" r="1.16"/><circle cx="272.00" cy="32.00" r="1.24"/><circle cx="272.00" cy="48.00" r="1.32"/><circle cx="272.00" cy="64.00" r="1.40"/><circle cx="272.00" cy="80.00" r="1.49"/><circle cx="272.00" cy="96.00" r="1.57"/><circle cx="272.00" cy="112.00" r="1.66"/><circle cx="272.00" cy="128.00" r="1.74"/><circle cx="272.00" cy="144.00" r="1.83"/><circle cx="272.00" cy="160.00" r="1.91"/><circle cx="272.00" cy="176.00" r="1.99"/><circle cx="272.00" cy="192.00" r="2.08"/><circle cx="272.00" cy="208.00" r="2.15"/><circle cx="272.00" cy="224.00" r="2.23"/><circle cx="272.00" cy="240.00" r="2.30"/><circle cx="272.00" cy="256.00" r="2.37"/><circle cx="272.00" cy="272.00" r="2.44"/><circle cx="272.00" cy="288.00" r="2.50"/><circle cx="272.00" cy="304.00" r="2.55"/><circle cx="272.00" cy="320.00" r="2.59"/><circle cx="272.00" cy="336.00" r="2.63"/><circle cx="272.00" cy="352.00" r="2.66"/><circle cx="272.00" cy="368.00" r="2.68"/><circle cx="272.00" cy="384.00" r="2.70"/><circle cx="272.00" cy="400.00" r="2.70"/><circle cx="288.00" cy="0.00" r="1.03"/><circle cx="288.00" cy="16.00" r="1.10"/><circle cx="288.00" cy="32.00" r="1.18"/><circle cx="288.00" cy="48.00" r="1.26"/><circle cx="288.00" cy="64.00" r="1.34"/><circle cx="288.00" cy="80.00" r="1.42"/><circle cx="288.00" cy="96.00" r="1.50"/><circle cx="288.00" cy="112.00" r="1.58"/><circle cx="288.00" cy="128.00" r="1.66"/><circle cx="288.00" cy="144.00" r="1.74"/><circle cx="288.00" cy="160.00" r="1.82"/><circle cx="288.00" cy="176.00" r="1.89"/><circle cx="288.00" cy="192.00" r="1.97"/><circle cx="288.00" cy="208.00" r="2.04"/><circle cx="288.00" cy="224.00" r="2.12"/><circle cx="288.00" cy="240.00" r="2.18"/><circle cx="288.00" cy="256.00" r="2.25"/><circle cx="288.00" cy="272.00" r="2.31"/><circle cx="288.00" cy="288.00" r="2.36"/><circle cx="288.00" cy="304.00" r="2.41"/><circle cx="288.00" cy="320.00" r="2.45"/><circle cx="288.00" cy="336.00" r="2.49"/><circle cx="288.00" cy="352.00" r="2.52"/><circle cx="288.00" cy="368.00" r="2.54"/><circle cx="288.00" cy="384.00" r="2.55"/><circle cx="288.00" cy="400.00" r="2.55"/><circle cx="304.00" cy="0.00" r="1.01"/><circle cx="304.00" cy="16.00" r="1.05"/><circle cx="304.00" cy="32.00" r="1.12"/><circle cx="304.00" cy="48.00" r="1.19"/><circle cx="304.00" cy="64.00" r="1.27"/><circle cx="304.00" cy="80.00" r="1.34"/><circle cx="304.00" cy="96.00" r="1.42"/><circle cx="304.00" cy="112.00" r="1.50"/><circle cx="304.00" cy="128.00" r="1.57"/><circle cx="304.00" cy="144.00" r="1.65"/><circle cx="304.00" cy="160.00" r="1.72"/><circle cx="304.00" cy="176.00" r="1.80"/><circle cx="304.00" cy="192.00" r="1.87"/><circle cx="304.00" cy="208.00" r="1.94"/><circle cx="304.00" cy="224.00" r="2.00"/><circle cx="304.00" cy="240.00" r="2.07"/><circle cx="304.00" cy="256.00" r="2.13"/><circle cx="304.00" cy="272.00" r="2.18"/><circle cx="304.00" cy="288.00" r="2.23"/><circle cx="304.00" cy="304.00" r="2.28"/><circle cx="304.00" cy="320.00" r="2.31"/><circle cx="304.00" cy="336.00" r="2.35"/><circle cx="304.00" cy="352.00" r="2.37"/><circle cx="304.00" cy="368.00" r="2.39"/><circle cx="304.00" cy="384.00" r="2.40"/><circle cx="304.00" cy="400.00" r="2.41"/><circle cx="320.00" cy="0.00" r="1.10"/><circle cx="320.00" cy="16.00" r="1.10"/><circle cx="320.00" cy="32.00" r="1.10"/><circle cx="320.00" cy="48.00" r="1.13"/><circle cx="320.00" cy="64.00" r="1.20"/><circle cx="320.00" cy="80.00" r="1.27"/><circle cx="320.00" cy="96.00" r="1.34"/><circle cx="320.00" cy="112.00" r="1.42"/><circle cx="320.00" cy="128.00" r="1.49"/><circle cx="320.00" cy="144.00" r="1.56"/><circle cx="320.00" cy="160.00" r="1.63"/><circle cx="320.00" cy="176.00" r="1.70"/><circle cx="320.00" cy="192.00" r="1.76"/><circle cx="320.00" cy="208.00" r="1.83"/><circle cx="320.00" cy="224.00" r="1.89"/><circle cx="320.00" cy="240.00" r="1.95"/><circle cx="320.00" cy="256.00" r="2.01"/><circle cx="320.00" cy="272.00" r="2.06"/><circle cx="320.00" cy="288.00" r="2.10"/><circle cx="320.00" cy="304.00" r="2.14"/><circle cx="320.00" cy="320.00" r="2.18"/><circle cx="320.00" cy="336.00" r="2.21"/><circle cx="320.00" cy="352.00" r="2.23"/><circle cx="320.00" cy="368.00" r="2.25"/><circle cx="320.00" cy="384.00" r="2.26"/><circle cx="320.00" cy="400.00" r="2.27"/><circle cx="336.00" cy="0.00" r="1.20"/><circle cx="336.00" cy="16.00" r="1.20"/><circle cx="336.00" cy="32.00" r="1.19"/><circle cx="336.00" cy="48.00" r="1.19"/><circle cx="336.00" cy="64.00" r="1.17"/><circle cx="336.00" cy="80.00" r="1.20"/><circle cx="336.00" cy="96.00" r="1.27"/><circle cx="336.00" cy="112.00" r="1.34"/><circle cx="336.00" cy="128.00" r="1.40"/><circle cx="336.00" cy="144.00" r="1.47"/><circle cx="336.00" cy="160.00" r="1.54"/><circle cx="336.00" cy="176.00" r="1.60"/><circle cx="336.00" cy="192.00" r="1.66"/><circle cx="336.00" cy="208.00" r="1.72"/><circle cx="336.00" cy="224.00" r="1.78"/><circle cx="336.00" cy="240.00" r="1.84"/><circle cx="336.00" cy="256.00" r="1.89"/><circle cx="336.00" cy="272.00" r="1.94"/><circle cx="336.00" cy="288.00" r="1.98"/><circle cx="336.00" cy="304.00" r="2.02"/><circle cx="336.00" cy="320.00" r="2.05"/><circle cx="336.00" cy="336.00" r="2.08"/><circle cx="336.00" cy="352.00" r="2.10"/><circle cx="336.00" cy="368.00" r="2.12"/><circle cx="336.00" cy="384.00" r="2.13"/><circle cx="336.00" cy="400.00" r="2.13"/><circle cx="352.00" cy="0.00" r="1.30"/><circle cx="352.00" cy="16.00" r="1.30"/><circle cx="352.00" cy="32.00" r="1.29"/><circle cx="352.00" cy="48.00" r="1.28"/><circle cx="352.00" cy="64.00" r="1.27"/><circle cx="352.00" cy="80.00" r="1.26"/><circle cx="352.00" cy="96.00" r="1.24"/><circle cx="352.00" cy="112.00" r="1.26"/><circle cx="352.00" cy="128.00" r="1.32"/><circle cx="352.00" cy="144.00" r="1.38"/><circle cx="352.00" cy="160.00" r="1.45"/><circle cx="352.00" cy="176.00" r="1.51"/><circle cx="352.00" cy="192.00" r="1.56"/><circle cx="352.00" cy="208.00" r="1.62"/><circle cx="352.00" cy="224.00" r="1.68"/><circle cx="352.00" cy="240.00" r="1.73"/><circle cx="352.00" cy="256.00" r="1.77"/><circle cx="352.00" cy="272.00" r="1.82"/><circle cx="352.00" cy="288.00" r="1.86"/><circle cx="352.00" cy="304.00" r="1.89"/><circle cx="352.00" cy="320.00" r="1.92"/><circle cx="352.00" cy="336.00" r="1.95"/><circle cx="352.00" cy="352.00" r="1.97"/><circle cx="352.00" cy="368.00" r="1.98"/><circle cx="352.00" cy="384.00" r="1.99"/><circle cx="352.00" cy="400.00" r="2.00"/><circle cx="368.00" cy="0.00" r="1.41"/><circle cx="368.00" cy="16.00" r="1.40"/><circle cx="368.00" cy="32.00" r="1.40"/><circle cx="368.00" cy="48.00" r="1.39"/><circle cx="368.00" cy="64.00" r="1.37"/><circle cx="368.00" cy="80.00" r="1.36"/><circle cx="368.00" cy="96.00" r="1.34"/><circle cx="368.00" cy="112.00" r="1.31"/><circle cx="368.00" cy="128.00" r="1.28"/><circle cx="368.00" cy="144.00" r="1.30"/><circle cx="368.00" cy="160.00" r="1.36"/><circle cx="368.00" cy="176.00" r="1.41"/><circle cx="368.00" cy="192.00" r="1.47"/><circle cx="368.00" cy="208.00" r="1.52"/><circle cx="368.00" cy="224.00" r="1.57"/><circle cx="368.00" cy="240.00" r="1.62"/><circle cx="368.00" cy="256.00" r="1.66"/><circle cx="368.00" cy="272.00" r="1.70"/><circle cx="368.00" cy="288.00" r="1.74"/><circle cx="368.00" cy="304.00" r="1.77"/><circle cx="368.00" cy="320.00" r="1.80"/><circle cx="368.00" cy="336.00" r="1.83"/><circle cx="368.00" cy="352.00" r="1.85"/><circle cx="368.00" cy="368.00" r="1.86"/><circle cx="368.00" cy="384.00" r="1.87"/><circle cx="368.00" cy="400.00" r="1.87"/><circle cx="384.00" cy="0.00" r="1.51"/><circle cx="384.00" cy="16.00" r="1.51"/><circle cx="384.00" cy="32.00" r="1.51"/><circle cx="384.00" cy="48.00" r="1.50"/><circle cx="384.00" cy="64.00" r="1.48"/><circle cx="384.00" cy="80.00" r="1.46"/><circle cx="384.00" cy="96.00" r="1.44"/><circle cx="384.00" cy="112.00" r="1.41"/><circle cx="384.00" cy="128.00" r="1.38"/><circle cx="384.00" cy="144.00" r="1.35"/><circle cx="384.00" cy="160.00" r="1.32"/><circle cx="384.00" cy="176.00" r="1.32"/><circle cx="384.00" cy="192.00" r="1.37"/><circle cx="384.00" cy="208.00" r="1.42"/><circle cx="384.00" cy="224.00" r="1.47"/><circle cx="384.00" cy="240.00" r="1.51"/><circle cx="384.00" cy="256.00" r="1.56"/><circle cx="384.00" cy="272.00" r="1.59"/><circle cx="384.00" cy="288.00" r="1.63"/><circle cx="384.00" cy="304.00" r="1.66"/><circle cx="384.00" cy="320.00" r="1.69"/><circle cx="384.00" cy="336.00" r="1.71"/><circle cx="384.00" cy="352.00" r="1.72"/><circle cx="384.00" cy="368.00" r="1.74"/><circle cx="384.00" cy="384.00" r="1.74"/><circle cx="384.00" cy="400.00" r="1.75"/><circle cx="400.00" cy="0.00" r="1.63"/><circle cx="400.00" cy="16.00" r="1.63"/><circle cx="400.00" cy="32.00" r="1.62"/><circle cx="400.00" cy="48.00" r="1.61"/><circle cx="400.00" cy="64.00" r="1.59"/><circle cx="400.00" cy="80.00" r="1.57"/><circle cx="400.00" cy="96.00" r="1.55"/><circle cx="400.00" cy="112.00" r="1.52"/><circle cx="400.00" cy="128.00" r="1.49"/><circle cx="400.00" cy="144.00" r="1.45"/><circle cx="400.00" cy="160.00" r="1.41"/><circle cx="400.00" cy="176.00" r="1.37"/><circle cx="400.00" cy="192.00" r="1.33"/><circle cx="400.00" cy="208.00" r="1.33"/><circle cx="400.00" cy="224.00" r="1.37"/><circle cx="400.00" cy="240.00" r="1.41"/><circle cx="400.00" cy="256.00" r="1.45"/><circle cx="400.00" cy="272.00" r="1.49"/><circle cx="400.00" cy="288.00" r="1.52"/><circle cx="400.00" cy="304.00" r="1.55"/><circle cx="400.00" cy="320.00" r="1.57"/><circle cx="400.00" cy="336.00" r="1.59"/><circle cx="400.00" cy="352.00" r="1.61"/><circle cx="400.00" cy="368.00" r="1.62"/><circle cx="400.00" cy="384.00" r="1.63"/><circle cx="400.00" cy="400.00" r="1.63"/><circle cx="416.00" cy="0.00" r="1.75"/><circle cx="416.00" cy="16.00" r="1.74"/><circle cx="416.00" cy="32.00" r="1.74"/><circle cx="416.00" cy="48.00" r="1.72"/><circle cx="416.00" cy="64.00" r="1.71"/><circle cx="416.00" cy="80.00" r="1.69"/><circle cx="416.00" cy="96.00" r="1.66"/><circle cx="416.00" cy="112.00" r="1.63"/><circle cx="416.00" cy="128.00" r="1.59"/><circle cx="416.00" cy="144.00" r="1.56"/><circle cx="416.00" cy="160.00" r="1.51"/><circle cx="416.00" cy="176.00" r="1.47"/><circle cx="416.00" cy="192.00" r="1.42"/><circle cx="416.00" cy="208.00" r="1.37"/><circle cx="416.00" cy="224.00" r="1.32"/><circle cx="416.00" cy="240.00" r="1.32"/><circle cx="416.00" cy="256.00" r="1.35"/><circle cx="416.00" cy="272.00" r="1.38"/><circle cx="416.00" cy="288.00" r="1.41"/><circle cx="416.00" cy="304.00" r="1.44"/><circle cx="416.00" cy="320.00" r="1.46"/><circle cx="416.00" cy="336.00" r="1.48"/><circle cx="416.00" cy="352.00" r="1.50"/><circle cx="416.00" cy="368.00" r="1.51"/><circle cx="416.00" cy="384.00" r="1.51"/><circle cx="416.00" cy="400.00" r="1.51"/><circle cx="432.00" cy="0.00" r="1.87"/><circle cx="432.00" cy="16.00" r="1.87"/><circle cx="432.00" cy="32.00" r="1.86"/><circle cx="432.00" cy="48.00" r="1.85"/><circle cx="432.00" cy="64.00" r="1.83"/><circle cx="432.00" cy="80.00" r="1.80"/><circle cx="432.00" cy="96.00" r="1.77"/><circle cx="432.00" cy="112.00" r="1.74"/><circle cx="432.00" cy="128.00" r="1.70"/><circle cx="432.00" cy="144.00" r="1.66"/><circle cx="432.00" cy="160.00" r="1.62"/><circle cx="432.00" cy="176.00" r="1.57"/><circle cx="432.00" cy="192.00" r="1.52"/><circle cx="432.00" cy="208.00" r="1.47"/><circle cx="432.00" cy="224.00" r="1.41"/><circle cx="432.00" cy="240.00" r="1.36"/><circle cx="432.00" cy="256.00" r="1.30"/><circle cx="432.00" cy="272.00" r="1.28"/><circle cx="432.00" cy="288.00" r="1.31"/><circle cx="432.00" cy="304.00" r="1.34"/><circle cx="432.00" cy="320.00" r="1.36"/><circle cx="432.00" cy="336.00" r="1.37"/><circle cx="432.00" cy="352.00" r="1.39"/><circle cx="432.00" cy="368.00" r="1.40"/><circle cx="432.00" cy="384.00" r="1.40"/><circle cx="432.00" cy="400.00" r="1.41"/><circle cx="448.00" cy="0.00" r="2.00"/><circle cx="448.00" cy="16.00" r="1.99"/><circle cx="448.00" cy="32.00" r="1.98"/><circle cx="448.00" cy="48.00" r="1.97"/><circle cx="448.00" cy="64.00" r="1.95"/><circle cx="448.00" cy="80.00" r="1.92"/><circle cx="448.00" cy="96.00" r="1.89"/><circle cx="448.00" cy="112.00" r="1.86"/><circle cx="448.00" cy="128.00" r="1.82"/><circle cx="448.00" cy="144.00" r="1.77"/><circle cx="448.00" cy="160.00" r="1.73"/><circle cx="448.00" cy="176.00" r="1.68"/><circle cx="448.00" cy="192.00" r="1.62"/><circle cx="448.00" cy="208.00" r="1.56"/><circle cx="448.00" cy="224.00" r="1.51"/><circle cx="448.00" cy="240.00" r="1.45"/><circle cx="448.00" cy="256.00" r="1.38"/><circle cx="448.00" cy="272.00" r="1.32"/><circle cx="448.00" cy="288.00" r="1.26"/><circle cx="448.00" cy="304.00" r="1.24"/><circle cx="448.00" cy="320.00" r="1.26"/><circle cx="448.00" cy="336.00" r="1.27"/><circle cx="448.00" cy="352.00" r="1.28"/><circle cx="448.00" cy="368.00" r="1.29"/><circle cx="448.00" cy="384.00" r="1.30"/><circle cx="448.00" cy="400.00" r="1.30"/><circle cx="464.00" cy="0.00" r="2.13"/><circle cx="464.00" cy="16.00" r="2.13"/><circle cx="464.00" cy="32.00" r="2.12"/><circle cx="464.00" cy="48.00" r="2.10"/><circle cx="464.00" cy="64.00" r="2.08"/><circle cx="464.00" cy="80.00" r="2.05"/><circle cx="464.00" cy="96.00" r="2.02"/><circle cx="464.00" cy="112.00" r="1.98"/><circle cx="464.00" cy="128.00" r="1.94"/><circle cx="464.00" cy="144.00" r="1.89"/><circle cx="464.00" cy="160.00" r="1.84"/><circle cx="464.00" cy="176.00" r="1.78"/><circle cx="464.00" cy="192.00" r="1.72"/><circle cx="464.00" cy="208.00" r="1.66"/><circle cx="464.00" cy="224.00" r="1.60"/><circle cx="464.00" cy="240.00" r="1.54"/><circle cx="464.00" cy="256.00" r="1.47"/><circle cx="464.00" cy="272.00" r="1.40"/><circle cx="464.00" cy="288.00" r="1.34"/><circle cx="464.00" cy="304.00" r="1.27"/><circle cx="464.00" cy="320.00" r="1.20"/><circle cx="464.00" cy="336.00" r="1.17"/><circle cx="464.00" cy="352.00" r="1.19"/><circle cx="464.00" cy="368.00" r="1.19"/><circle cx="464.00" cy="384.00" r="1.20"/><circle cx="464.00" cy="400.00" r="1.20"/><circle cx="480.00" cy="0.00" r="2.27"/><circle cx="480.00" cy="16.00" r="2.26"/><circle cx="480.00" cy="32.00" r="2.25"/><circle cx="480.00" cy="48.00" r="2.23"/><circle cx="480.00" cy="64.00" r="2.21"/><circle cx="480.00" cy="80.00" r="2.18"/><circle cx="480.00" cy="96.00" r="2.14"/><circle cx="480.00" cy="112.00" r="2.10"/><circle cx="480.00" cy="128.00" r="2.06"/><circle cx="480.00" cy="144.00" r="2.01"/><circle cx="480.00" cy="160.00" r="1.95"/><circle cx="480.00" cy="176.00" r="1.89"/><circle cx="480.00" cy="192.00" r="1.83"/><circle cx="480.00" cy="208.00" r="1.76"/><circle cx="480.00" cy="224.00" r="1.70"/><circle cx="480.00" cy="240.00" r="1.63"/><circle cx="480.00" cy="256.00" r="1.56"/><circle cx="480.00" cy="272.00" r="1.49"/><circle cx="480.00" cy="288.00" r="1.42"/><circle cx="480.00" cy="304.00" r="1.34"/><circle cx="480.00" cy="320.00" r="1.27"/><circle cx="480.00" cy="336.00" r="1.20"/><circle cx="480.00" cy="352.00" r="1.13"/><circle cx="480.00" cy="368.00" r="1.10"/><circle cx="480.00" cy="384.00" r="1.10"/><circle cx="480.00" cy="400.00" r="1.10"/><circle cx="496.00" cy="0.00" r="2.41"/><circle cx="496.00" cy="16.00" r="2.40"/><circle cx="496.00" cy="32.00" r="2.39"/><circle cx="496.00" cy="48.00" r="2.37"/><circle cx="496.00" cy="64.00" r="2.35"/><circle cx="496.00" cy="80.00" r="2.31"/><circle cx="496.00" cy="96.00" r="2.28"/><circle cx="496.00" cy="112.00" r="2.23"/><circle cx="496.00" cy="128.00" r="2.18"/><circle cx="496.00" cy="144.00" r="2.13"/><circle cx="496.00" cy="160.00" r="2.07"/><circle cx="496.00" cy="176.00" r="2.00"/><circle cx="496.00" cy="192.00" r="1.94"/><circle cx="496.00" cy="208.00" r="1.87"/><circle cx="496.00" cy="224.00" r="1.80"/><circle cx="496.00" cy="240.00" r="1.72"/><circle cx="496.00" cy="256.00" r="1.65"/><circle cx="496.00" cy="272.00" r="1.57"/><circle cx="496.00" cy="288.00" r="1.50"/><circle cx="496.00" cy="304.00" r="1.42"/><circle cx="496.00" cy="320.00" r="1.34"/><circle cx="496.00" cy="336.00" r="1.27"/><circle cx="496.00" cy="352.00" r="1.19"/><circle cx="496.00" cy="368.00" r="1.12"/><circle cx="496.00" cy="384.00" r="1.05"/><circle cx="496.00" cy="400.00" r="1.01"/><circle cx="512.00" cy="0.00" r="2.55"/><circle cx="512.00" cy="16.00" r="2.55"/><circle cx="512.00" cy="32.00" r="2.54"/><circle cx="512.00" cy="48.00" r="2.52"/><circle cx="512.00" cy="64.00" r="2.49"/><circle cx="512.00" cy="80.00" r="2.45"/><circle cx="512.00" cy="96.00" r="2.41"/><circle cx="512.00" cy="112.00" r="2.36"/><circle cx="512.00" cy="128.00" r="2.31"/><circle cx="512.00" cy="144.00" r="2.25"/><circle cx="512.00" cy="160.00" r="2.18"/><circle cx="512.00" cy="176.00" r="2.12"/><circle cx="512.00" cy="192.00" r="2.04"/><circle cx="512.00" cy="208.00" r="1.97"/><circle cx="512.00" cy="224.00" r="1.89"/><circle cx="512.00" cy="240.00" r="1.82"/><circle cx="512.00" cy="256.00" r="1.74"/><circle cx="512.00" cy="272.00" r="1.66"/><circle cx="512.00" cy="288.00" r="1.58"/><circle cx="512.00" cy="304.00" r="1.50"/><circle cx="512.00" cy="320.00" r="1.42"/><circle cx="512.00" cy="336.00" r="1.34"/><circle cx="512.00" cy="352.00" r="1.26"/><circle cx="512.00" cy="368.00" r="1.18"/><circle cx="512.00" cy="384.00" r="1.10"/><circle cx="512.00" cy="400.00" r="1.03"/><circle cx="528.00" cy="0.00" r="2.70"/><circle cx="528.00" cy="16.00" r="2.70"/><circle cx="528.00" cy="32.00" r="2.68"/><circle cx="528.00" cy="48.00" r="2.66"/><circle cx="528.00" cy="64.00" r="2.63"/><circle cx="528.00" cy="80.00" r="2.59"/><circle cx="528.00" cy="96.00" r="2.55"/><circle cx="528.00" cy="112.00" r="2.50"/><circle cx="528.00" cy="128.00" r="2.44"/><circle cx="528.00" cy="144.00" r="2.37"/><circle cx="528.00" cy="160.00" r="2.30"/><circle cx="528.00" cy="176.00" r="2.23"/><circle cx="528.00" cy="192.00" r="2.15"/><circle cx="528.00" cy="208.00" r="2.08"/><circle cx="528.00" cy="224.00" r="1.99"/><circle cx="528.00" cy="240.00" r="1.91"/><circle cx="528.00" cy="256.00" r="1.83"/><circle cx="528.00" cy="272.00" r="1.74"/><circle cx="528.00" cy="288.00" r="1.66"/><circle cx="528.00" cy="304.00" r="1.57"/><circle cx="528.00" cy="320.00" r="1.49"/><circle cx="528.00" cy="336.00" r="1.40"/><circle cx="528.00" cy="352.00" r="1.32"/><circle cx="528.00" cy="368.00" r="1.24"/><circle cx="528.00" cy="384.00" r="1.16"/><circle cx="528.00" cy="400.00" r="1.08"/><circle cx="544.00" cy="0.00" r="2.86"/><circle cx="544.00" cy="16.00" r="2.85"/><circle cx="544.00" cy="32.00" r="2.84"/><circle cx="544.00" cy="48.00" r="2.81"/><circle cx="544.00" cy="64.00" r="2.78"/><circle cx="544.00" cy="80.00" r="2.74"/><circle cx="544.00" cy="96.00" r="2.69"/><circle cx="544.00" cy="112.00" r="2.63"/><circle cx="544.00" cy="128.00" r="2.57"/><circle cx="544.00" cy="144.00" r="2.50"/><circle cx="544.00" cy="160.00" r="2.43"/><circle cx="544.00" cy="176.00" r="2.35"/><circle cx="544.00" cy="192.00" r="2.27"/><circle cx="544.00" cy="208.00" r="2.18"/><circle cx="544.00" cy="224.00" r="2.09"/><circle cx="544.00" cy="240.00" r="2.01"/><circle cx="544.00" cy="256.00" r="1.92"/><circle cx="544.00" cy="272.00" r="1.83"/><circle cx="544.00" cy="288.00" r="1.74"/><circle cx="544.00" cy="304.00" r="1.65"/><circle cx="544.00" cy="320.00" r="1.56"/><circle cx="544.00" cy="336.00" r="1.47"/><circle cx="544.00" cy="352.00" r="1.38"/><circle cx="544.00" cy="368.00" r="1.30"/><circle cx="544.00" cy="384.00" r="1.22"/><circle cx="544.00" cy="400.00" r="1.13"/><circle cx="560.00" cy="0.00" r="3.02"/><circle cx="560.00" cy="16.00" r="3.01"/><circle cx="560.00" cy="32.00" r="3.00"/><circle cx="560.00" cy="48.00" r="2.97"/><circle cx="560.00" cy="64.00" r="2.93"/><circle cx="560.00" cy="80.00" r="2.89"/><circle cx="560.00" cy="96.00" r="2.83"/><circle cx="560.00" cy="112.00" r="2.77"/><circle cx="560.00" cy="128.00" r="2.70"/><circle cx="560.00" cy="144.00" r="2.63"/><circle cx="560.00" cy="160.00" r="2.55"/><circle cx="560.00" cy="176.00" r="2.46"/><circle cx="560.00" cy="192.00" r="2.38"/><circle cx="560.00" cy="208.00" r="2.29"/><circle cx="560.00" cy="224.00" r="2.19"/><circle cx="560.00" cy="240.00" r="2.10"/><circle cx="560.00" cy="256.00" r="2.01"/><circle cx="560.00" cy="272.00" r="1.91"/><circle cx="560.00" cy="288.00" r="1.82"/><circle cx="560.00" cy="304.00" r="1.72"/><circle cx="560.00" cy="320.00" r="1.63"/><circle cx="560.00" cy="336.00" r="1.54"/><circle cx="560.00" cy="352.00" r="1.45"/><circle cx="560.00" cy="368.00" r="1.36"/><circle cx="560.00" cy="384.00" r="1.27"/><circle cx="560.00" cy="400.00" r="1.19"/><circle cx="576.00" cy="0.00" r="3.18"/><circle cx="576.00" cy="16.00" r="3.18"/><circle cx="576.00" cy="32.00" r="3.16"/><circle cx="576.00" cy="48.00" r="3.13"/><circle cx="576.00" cy="64.00" r="3.09"/><circle cx="576.00" cy="80.00" r="3.04"/><circle cx="576.00" cy="96.00" r="2.98"/><circle cx="576.00" cy="112.00" r="2.91"/><circle cx="576.00" cy="128.00" r="2.84"/><circle cx="576.00" cy="144.00" r="2.76"/><circle cx="576.00" cy="160.00" r="2.67"/><circle cx="576.00" cy="176.00" r="2.58"/><circle cx="576.00" cy="192.00" r="2.49"/><circle cx="576.00" cy="208.00" r="2.39"/><circle cx="576.00" cy="224.00" r="2.29"/><circle cx="576.00" cy="240.00" r="2.19"/><circle cx="576.00" cy="256.00" r="2.09"/><circle cx="576.00" cy="272.00" r="1.99"/><circle cx="576.00" cy="288.00" r="1.89"/><circle cx="576.00" cy="304.00" r="1.80"/><circle cx="576.00" cy="320.00" r="1.70"/><circle cx="576.00" cy="336.00" r="1.60"/><circle cx="576.00" cy="352.00" r="1.51"/><circle cx="576.00" cy="368.00" r="1.41"/><circle cx="576.00" cy="384.00" r="1.32"/><circle cx="576.00" cy="400.00" r="1.23"/><circle cx="592.00" cy="0.00" r="3.35"/><circle cx="592.00" cy="16.00" r="3.35"/><circle cx="592.00" cy="32.00" r="3.33"/><circle cx="592.00" cy="48.00" r="3.29"/><circle cx="592.00" cy="64.00" r="3.25"/><circle cx="592.00" cy="80.00" r="3.19"/><circle cx="592.00" cy="96.00" r="3.13"/><circle cx="592.00" cy="112.00" r="3.06"/><circle cx="592.00" cy="128.00" r="2.97"/><circle cx="592.00" cy="144.00" r="2.89"/><circle cx="592.00" cy="160.00" r="2.79"/><circle cx="592.00" cy="176.00" r="2.70"/><circle cx="592.00" cy="192.00" r="2.60"/><circle cx="592.00" cy="208.00" r="2.50"/><circle cx="592.00" cy="224.00" r="2.39"/><circle cx="592.00" cy="240.00" r="2.29"/><circle cx="592.00" cy="256.00" r="2.18"/><circle cx="592.00" cy="272.00" r="2.08"/><circle cx="592.00" cy="288.00" r="1.97"/><circle cx="592.00" cy="304.00" r="1.87"/><circle cx="592.00" cy="320.00" r="1.76"/><circle cx="592.00" cy="336.00" r="1.66"/><circle cx="592.00" cy="352.00" r="1.56"/><circle cx="592.00" cy="368.00" r="1.47"/><circle cx="592.00" cy="384.00" r="1.37"/><circle cx="592.00" cy="400.00" r="1.28"/><circle cx="608.00" cy="0.00" r="3.53"/><circle cx="608.00" cy="16.00" r="3.52"/><circle cx="608.00" cy="32.00" r="3.50"/><circle cx="608.00" cy="48.00" r="3.46"/><circle cx="608.00" cy="64.00" r="3.41"/><circle cx="608.00" cy="80.00" r="3.35"/><circle cx="608.00" cy="96.00" r="3.28"/><circle cx="608.00" cy="112.00" r="3.20"/><circle cx="608.00" cy="128.00" r="3.11"/><circle cx="608.00" cy="144.00" r="3.02"/><circle cx="608.00" cy="160.00" r="2.92"/><circle cx="608.00" cy="176.00" r="2.81"/><circle cx="608.00" cy="192.00" r="2.71"/><circle cx="608.00" cy="208.00" r="2.60"/><circle cx="608.00" cy="224.00" r="2.49"/><circle cx="608.00" cy="240.00" r="2.38"/><circle cx="608.00" cy="256.00" r="2.27"/><circle cx="608.00" cy="272.00" r="2.15"/><circle cx="608.00" cy="288.00" r="2.04"/><circle cx="608.00" cy="304.00" r="1.94"/><circle cx="608.00" cy="320.00" r="1.83"/><circle cx="608.00" cy="336.00" r="1.72"/><circle cx="608.00" cy="352.00" r="1.62"/><circle cx="608.00" cy="368.00" r="1.52"/><circle cx="608.00" cy="384.00" r="1.42"/><circle cx="608.00" cy="400.00" r="1.33"/><circle cx="624.00" cy="0.00" r="3.71"/><circle cx="624.00" cy="16.00" r="3.70"/><circle cx="624.00" cy="32.00" r="3.67"/><circle cx="624.00" cy="48.00" r="3.63"/><circle cx="624.00" cy="64.00" r="3.58"/><circle cx="624.00" cy="80.00" r="3.51"/><circle cx="624.00" cy="96.00" r="3.43"/><circle cx="624.00" cy="112.00" r="3.35"/><circle cx="624.00" cy="128.00" r="3.25"/><circle cx="624.00" cy="144.00" r="3.15"/><circle cx="624.00" cy="160.00" r="3.04"/><circle cx="624.00" cy="176.00" r="2.93"/><circle cx="624.00" cy="192.00" r="2.81"/><circle cx="624.00" cy="208.00" r="2.70"/><circle cx="624.00" cy="224.00" r="2.58"/><circle cx="624.00" cy="240.00" r="2.46"/><circle cx="624.00" cy="256.00" r="2.35"/><circle cx="624.00" cy="272.00" r="2.23"/><circle cx="624.00" cy="288.00" r="2.12"/><circle cx="624.00" cy="304.00" r="2.00"/><circle cx="624.00" cy="320.00" r="1.89"/><circle cx="624.00" cy="336.00" r="1.78"/><circle cx="624.00" cy="352.00" r="1.68"/><circle cx="624.00" cy="368.00" r="1.57"/><circle cx="624.00" cy="384.00" r="1.47"/><circle cx="624.00" cy="400.00" r="1.37"/><circle cx="640.00" cy="0.00" r="3.89"/><circle cx="640.00" cy="16.00" r="3.88"/><circle cx="640.00" cy="32.00" r="3.85"/><circle cx="640.00" cy="48.00" r="3.81"/><circle cx="640.00" cy="64.00" r="3.75"/><circle cx="640.00" cy="80.00" r="3.67"/><circle cx="640.00" cy="96.00" r="3.59"/><circle cx="640.00" cy="112.00" r="3.49"/><circle cx="640.00" cy="128.00" r="3.39"/><circle cx="640.00" cy="144.00" r="3.27"/><circle cx="640.00" cy="160.00" r="3.16"/><circle cx="640.00" cy="176.00" r="3.04"/><circle cx="640.00" cy="192.00" r="2.92"/><circle cx="640.00" cy="208.00" r="2.79"/><circle cx="640.00" cy="224.00" r="2.67"/><circle cx="640.00" cy="240.00" r="2.55"/><circle cx="640.00" cy="256.00" r="2.43"/><circle cx="640.00" cy="272.00" r="2.30"/><circle cx="640.00" cy="288.00" r="2.18"/><circle cx="640.00" cy="304.00" r="2.07"/><circle cx="640.00" cy="320.00" r="1.95"/><circle cx="640.00" cy="336.00" r="1.84"/><circle cx="640.00" cy="352.00" r="1.73"/><circle cx="640.00" cy="368.00" r="1.62"/><circle cx="640.00" cy="384.00" r="1.51"/><circle cx="640.00" cy="400.00" r="1.41"/><circle cx="656.00" cy="0.00" r="4.08"/><circle cx="656.00" cy="16.00" r="4.07"/><circle cx="656.00" cy="32.00" r="4.04"/><circle cx="656.00" cy="48.00" r="3.99"/><circle cx="656.00" cy="64.00" r="3.92"/><circle cx="656.00" cy="80.00" r="3.83"/><circle cx="656.00" cy="96.00" r="3.74"/><circle cx="656.00" cy="112.00" r="3.63"/><circle cx="656.00" cy="128.00" r="3.52"/><circle cx="656.00" cy="144.00" r="3.40"/><circle cx="656.00" cy="160.00" r="3.27"/><circle cx="656.00" cy="176.00" r="3.15"/><circle cx="656.00" cy="192.00" r="3.02"/><circle cx="656.00" cy="208.00" r="2.89"/><circle cx="656.00" cy="224.00" r="2.76"/><circle cx="656.00" cy="240.00" r="2.63"/><circle cx="656.00" cy="256.00" r="2.50"/><circle cx="656.00" cy="272.00" r="2.37"/><circle cx="656.00" cy="288.00" r="2.25"/><circle cx="656.00" cy="304.00" r="2.13"/><circle cx="656.00" cy="320.00" r="2.01"/><circle cx="656.00" cy="336.00" r="1.89"/><circle cx="656.00" cy="352.00" r="1.77"/><circle cx="656.00" cy="368.00" r="1.66"/><circle cx="656.00" cy="384.00" r="1.56"/><circle cx="656.00" cy="400.00" r="1.45"/><circle cx="672.00" cy="0.00" r="4.27"/><circle cx="672.00" cy="16.00" r="4.26"/><circle cx="672.00" cy="32.00" r="4.22"/><circle cx="672.00" cy="48.00" r="4.17"/><circle cx="672.00" cy="64.00" r="4.09"/><circle cx="672.00" cy="80.00" r="4.00"/><circle cx="672.00" cy="96.00" r="3.89"/><circle cx="672.00" cy="112.00" r="3.77"/><circle cx="672.00" cy="128.00" r="3.65"/><circle cx="672.00" cy="144.00" r="3.52"/><circle cx="672.00" cy="160.00" r="3.39"/><circle cx="672.00" cy="176.00" r="3.25"/><circle cx="672.00" cy="192.00" r="3.11"/><circle cx="672.00" cy="208.00" r="2.97"/><circle cx="672.00" cy="224.00" r="2.84"/><circle cx="672.00" cy="240.00" r="2.70"/><circle cx="672.00" cy="256.00" r="2.57"/><circle cx="672.00" cy="272.00" r="2.44"/><circle cx="672.00" cy="288.00" r="2.31"/><circle cx="672.00" cy="304.00" r="2.18"/><circle cx="672.00" cy="320.00" r="2.06"/><circle cx="672.00" cy="336.00" r="1.94"/><circle cx="672.00" cy="352.00" r="1.82"/><circle cx="672.00" cy="368.00" r="1.70"/><circle cx="672.00" cy="384.00" r="1.59"/><circle cx="672.00" cy="400.00" r="1.49"/><circle cx="688.00" cy="0.00" r="4.47"/><circle cx="688.00" cy="16.00" r="4.46"/><circle cx="688.00" cy="32.00" r="4.41"/><circle cx="688.00" cy="48.00" r="4.35"/><circle cx="688.00" cy="64.00" r="4.26"/><circle cx="688.00" cy="80.00" r="4.15"/><circle cx="688.00" cy="96.00" r="4.04"/><circle cx="688.00" cy="112.00" r="3.91"/><circle cx="688.00" cy="128.00" r="3.77"/><circle cx="688.00" cy="144.00" r="3.63"/><circle cx="688.00" cy="160.00" r="3.49"/><circle cx="688.00" cy="176.00" r="3.35"/><circle cx="688.00" cy="192.00" r="3.20"/><circle cx="688.00" cy="208.00" r="3.06"/><circle cx="688.00" cy="224.00" r="2.91"/><circle cx="688.00" cy="240.00" r="2.77"/><circle cx="688.00" cy="256.00" r="2.63"/><circle cx="688.00" cy="272.00" r="2.50"/><circle cx="688.00" cy="288.00" r="2.36"/><circle cx="688.00" cy="304.00" r="2.23"/><circle cx="688.00" cy="320.00" r="2.10"/><circle cx="688.00" cy="336.00" r="1.98"/><circle cx="688.00" cy="352.00" r="1.86"/><circle cx="688.00" cy="368.00" r="1.74"/><circle cx="688.00" cy="384.00" r="1.63"/><circle cx="688.00" cy="400.00" r="1.52"/><circle cx="704.00" cy="0.00" r="4.67"/><circle cx="704.00" cy="16.00" r="4.66"/><circle cx="704.00" cy="32.00" r="4.61"/><circle cx="704.00" cy="48.00" r="4.53"/><circle cx="704.00" cy="64.00" r="4.43"/><circle cx="704.00" cy="80.00" r="4.31"/><circle cx="704.00" cy="96.00" r="4.18"/><circle cx="704.00" cy="112.00" r="4.04"/><circle cx="704.00" cy="128.00" r="3.89"/><circle cx="704.00" cy="144.00" r="3.74"/><circle cx="704.00" cy="160.00" r="3.59"/><circle cx="704.00" cy="176.00" r="3.43"/><circle cx="704.00" cy="192.00" r="3.28"/><circle cx="704.00" cy="208.00" r="3.13"/><circle cx="704.00" cy="224.00" r="2.98"/><circle cx="704.00" cy="240.00" r="2.83"/><circle cx="704.00" cy="256.00" r="2.69"/><circle cx="704.00" cy="272.00" r="2.55"/><circle cx="704.00" cy="288.00" r="2.41"/><circle cx="704.00" cy="304.00" r="2.28"/><circle cx="704.00" cy="320.00" r="2.14"/><circle cx="704.00" cy="336.00" r="2.02"/><circle cx="704.00" cy="352.00" r="1.89"/><circle cx="704.00" cy="368.00" r="1.77"/><circle cx="704.00" cy="384.00" r="1.66"/><circle cx="704.00" cy="400.00" r="1.55"/><circle cx="720.00" cy="0.00" r="4.88"/><circle cx="720.00" cy="16.00" r="4.86"/><circle cx="720.00" cy="32.00" r="4.80"/><circle cx="720.00" cy="48.00" r="4.71"/><circle cx="720.00" cy="64.00" r="4.59"/><circle cx="720.00" cy="80.00" r="4.46"/><circle cx="720.00" cy="96.00" r="4.31"/><circle cx="720.00" cy="112.00" r="4.15"/><circle cx="720.00" cy="128.00" r="4.00"/><circle cx="720.00" cy="144.00" r="3.83"/><circle cx="720.00" cy="160.00" r="3.67"/><circle cx="720.00" cy="176.00" r="3.51"/><circle cx="720.00" cy="192.00" r="3.35"/><circle cx="720.00" cy="208.00" r="3.19"/><circle cx="720.00" cy="224.00" r="3.04"/><circle cx="720.00" cy="240.00" r="2.89"/><circle cx="720.00" cy="256.00" r="2.74"/><circle cx="720.00" cy="272.00" r="2.59"/><circle cx="720.00" cy="288.00" r="2.45"/><circle cx="720.00" cy="304.00" r="2.31"/><circle cx="720.00" cy="320.00" r="2.18"/><circle cx="720.00" cy="336.00" r="2.05"/><circle cx="720.00" cy="352.00" r="1.92"/><circle cx="720.00" cy="368.00" r="1.80"/><circle cx="720.00" cy="384.00" r="1.69"/><circle cx="720.00" cy="400.00" r="1.57"/><circle cx="736.00" cy="0.00" r="5.10"/><circle cx="736.00" cy="16.00" r="5.07"/><circle cx="736.00" cy="32.00" r="4.99"/><circle cx="736.00" cy="48.00" r="4.88"/><circle cx="736.00" cy="64.00" r="4.74"/><circle cx="736.00" cy="80.00" r="4.59"/><circle cx="736.00" cy="96.00" r="4.43"/><circle cx="736.00" cy="112.00" r="4.26"/><circle cx="736.00" cy="128.00" r="4.09"/><circle cx="736.00" cy="144.00" r="3.92"/><circle cx="736.00" cy="160.00" r="3.75"/><circle cx="736.00" cy="176.00" r="3.58"/><circle cx="736.00" cy="192.00" r="3.41"/><circle cx="736.00" cy="208.00" r="3.25"/><circle cx="736.00" cy="224.00" r="3.09"/><circle cx="736.00" cy="240.00" r="2.93"/><circle cx="736.00" cy="256.00" r="2.78"/><circle cx="736.00" cy="272.00" r="2.63"/><circle cx="736.00" cy="288.00" r="2.49"/><circle cx="736.00" cy="304.00" r="2.35"/><circle cx="736.00" cy="320.00" r="2.21"/><circle cx="736.00" cy="336.00" r="2.08"/><circle cx="736.00" cy="352.00" r="1.95"/><circle cx="736.00" cy="368.00" r="1.83"/><circle cx="736.00" cy="384.00" r="1.71"/><circle cx="736.00" cy="400.00" r="1.59"/><circle cx="752.00" cy="0.00" r="5.31"/><circle cx="752.00" cy="16.00" r="5.28"/><circle cx="752.00" cy="32.00" r="5.18"/><circle cx="752.00" cy="48.00" r="5.04"/><circle cx="752.00" cy="64.00" r="4.88"/><circle cx="752.00" cy="80.00" r="4.71"/><circle cx="752.00" cy="96.00" r="4.53"/><circle cx="752.00" cy="112.00" r="4.35"/><circle cx="752.00" cy="128.00" r="4.17"/><circle cx="752.00" cy="144.00" r="3.99"/><circle cx="752.00" cy="160.00" r="3.81"/><circle cx="752.00" cy="176.00" r="3.63"/><circle cx="752.00" cy="192.00" r="3.46"/><circle cx="752.00" cy="208.00" r="3.29"/><circle cx="752.00" cy="224.00" r="3.13"/><circle cx="752.00" cy="240.00" r="2.97"/><circle cx="752.00" cy="256.00" r="2.81"/><circle cx="752.00" cy="272.00" r="2.66"/><circle cx="752.00" cy="288.00" r="2.52"/><circle cx="752.00" cy="304.00" r="2.37"/><circle cx="752.00" cy="320.00" r="2.23"/><circle cx="752.00" cy="336.00" r="2.10"/><circle cx="752.00" cy="352.00" r="1.97"/><circle cx="752.00" cy="368.00" r="1.85"/><circle cx="752.00" cy="384.00" r="1.72"/><circle cx="752.00" cy="400.00" r="1.61"/><circle cx="768.00" cy="0.00" r="5.54"/><circle cx="768.00" cy="16.00" r="5.48"/><circle cx="768.00" cy="32.00" r="5.35"/><circle cx="768.00" cy="48.00" r="5.18"/><circle cx="768.00" cy="64.00" r="4.99"/><circle cx="768.00" cy="80.00" r="4.80"/><circle cx="768.00" cy="96.00" r="4.61"/><circle cx="768.00" cy="112.00" r="4.41"/><circle cx="768.00" cy="128.00" r="4.22"/><circle cx="768.00" cy="144.00" r="4.04"/><circle cx="768.00" cy="160.00" r="3.85"/><circle cx="768.00" cy="176.00" r="3.67"/><circle cx="768.00" cy="192.00" r="3.50"/><circle cx="768.00" cy="208.00" r="3.33"/><circle cx="768.00" cy="224.00" r="3.16"/><circle cx="768.00" cy="240.00" r="3.00"/><circle cx="768.00" cy="256.00" r="2.84"/><circle cx="768.00" cy="272.00" r="2.68"/><circle cx="768.00" cy="288.00" r="2.54"/><circle cx="768.00" cy="304.00" r="2.39"/><circle cx="768.00" cy="320.00" r="2.25"/><circle cx="768.00" cy="336.00" r="2.12"/><circle cx="768.00" cy="352.00" r="1.98"/><circle cx="768.00" cy="368.00" r="1.86"/><circle cx="768.00" cy="384.00" r="1.74"/><circle cx="768.00" cy="400.00" r="1.62"/><circle cx="784.00" cy="0.00" r="5.77"/><circle cx="784.00" cy="16.00" r="5.67"/><circle cx="784.00" cy="32.00" r="5.48"/><circle cx="784.00" cy="48.00" r="5.28"/><circle cx="784.00" cy="64.00" r="5.07"/><circle cx="784.00" cy="80.00" r="4.86"/><circle cx="784.00" cy="96.00" r="4.66"/><circle cx="784.00" cy="112.00" r="4.46"/><circle cx="784.00" cy="128.00" r="4.26"/><circle cx="784.00" cy="144.00" r="4.07"/><circle cx="784.00" cy="160.00" r="3.88"/><circle cx="784.00" cy="176.00" r="3.70"/><circle cx="784.00" cy="192.00" r="3.52"/><circle cx="784.00" cy="208.00" r="3.35"/><circle cx="784.00" cy="224.00" r="3.18"/><circle cx="784.00" cy="240.00" r="3.01"/><circle cx="784.00" cy="256.00" r="2.85"/><circle cx="784.00" cy="272.00" r="2.70"/><circle cx="784.00" cy="288.00" r="2.55"/><circle cx="784.00" cy="304.00" r="2.40"/><circle cx="784.00" cy="320.00" r="2.26"/><circle cx="784.00" cy="336.00" r="2.13"/><circle cx="784.00" cy="352.00" r="1.99"/><circle cx="784.00" cy="368.00" r="1.87"/><circle cx="784.00" cy="384.00" r="1.74"/><circle cx="784.00" cy="400.00" r="1.63"/><circle cx="800.00" cy="0.00" r="6.00"/><circle cx="800.00" cy="16.00" r="5.77"/><circle cx="800.00" cy="32.00" r="5.54"/><circle cx="800.00" cy="48.00" r="5.31"/><circle cx="800.00" cy="64.00" r="5.10"/><circle cx="800.00" cy="80.00" r="4.88"/><circle cx="800.00" cy="96.00" r="4.67"/><circle cx="800.00" cy="112.00" r="4.47"/><circle cx="800.00" cy="128.00" r="4.27"/><circle cx="800.00" cy="144.00" r="4.08"/><circle cx="800.00" cy="160.00" r="3.89"/><circle cx="800.00" cy="176.00" r="3.71"/><circle cx="800.00" cy="192.00" r="3.53"/><circle cx="800.00" cy="208.00" r="3.35"/><circle cx="800.00" cy="224.00" r="3.18"/><circle cx="800.00" cy="240.00" r="3.02"/><circle cx="800.00" cy="256.00" r="2.86"/><circle cx="800.00" cy="272.00" r="2.70"/><circle cx="800.00" cy="288.00" r="2.55"/><circle cx="800.00" cy="304.00" r="2.41"/><circle cx="800.00" cy="320.00" r="2.27"/><circle cx="800.00" cy="336.00" r="2.13"/><circle cx="800.00" cy="352.00" r="2.00"/><circle cx="800.00" cy="368.00" r="1.87"/><circle cx="800.00" cy="384.00" r="1.75"/><circle cx="800.00" cy="400.00" r="1.63"/></g></svg>